<?xml version="1.0" standalone="no"?>
<!DOCTYPE svg PUBLIC "-//W3C//DTD SVG 20010904//EN"
 "http://www.w3.org/TR/2001/REC-SVG-20010904/DTD/svg10.dtd">
<svg version="1.0" xmlns="http://www.w3.org/2000/svg"
 width="253.000000pt" height="205.000000pt" viewBox="0 0 253.000000 205.000000"
 preserveAspectRatio="xMidYMid meet">
<metadata>
Created by potrace 1.10, written by Peter Selinger 2001-2011
</metadata>
<g transform="translate(0.000000,205.000000) scale(0.100000,-0.100000)"
fill="#0f43ea" stroke="none">
<path d="M1462 2027 c-12 -13 -22 -29 -22 -35 0 -7 -4 -12 -10 -12 -5 0 -10
-5 -10 -12 0 -7 -15 -28 -34 -48 l-35 -35 19 -40 c11 -22 19 -32 20 -22 0 9 5
17 10 17 6 0 10 9 10 19 0 11 4 22 9 25 5 3 7 16 3 28 -4 17 -2 20 11 15 10
-4 28 8 54 36 20 23 43 41 49 39 7 -1 15 2 18 7 4 5 -8 13 -26 16 -18 4 -36
11 -39 16 -3 5 -15 -1 -27 -14z m35 -14 c-4 -3 -10 -3 -14 0 -3 4 0 7 7 7 7 0
10 -3 7 -7z"/>
<path d="M1563 1979 c-18 -5 -33 -14 -33 -20 0 -5 -11 -14 -25 -19 -14 -5 -25
-16 -25 -24 0 -8 -4 -16 -9 -18 -19 -7 -47 -85 -46 -133 0 -41 4 -51 22 -61
13 -6 20 -14 16 -17 -3 -4 3 -7 13 -7 11 0 26 -6 32 -12 9 -9 15 -10 20 -2 4
6 23 15 42 19 40 8 120 80 120 107 0 10 7 21 15 24 11 5 15 22 15 65 0 33 -4
59 -10 59 -5 0 -10 6 -10 13 0 31 -72 45 -137 26z m129 -39 c38 -47 8 -143
-64 -204 -35 -31 -49 -36 -90 -36 -36 0 -48 4 -48 15 0 11 11 15 42 15 35 0
46 6 79 41 21 23 35 47 32 55 -3 8 0 14 6 14 13 0 14 59 1 80 -5 8 -15 15 -22
16 -7 0 -29 2 -48 3 -34 2 -34 2 -15 17 29 22 104 13 127 -16z m-135 -17 c-4
-3 -10 -3 -14 0 -3 4 0 7 7 7 7 0 10 -3 7 -7z m-37 -162 c0 -5 -7 -11 -14 -14
-10 -4 -13 -1 -9 9 6 15 23 19 23 5z"/>
<path d="M1795 1821 c-16 -4 -41 -14 -55 -21 -14 -8 -28 -13 -32 -12 -5 1 -8
-3 -8 -8 0 -6 -12 -22 -26 -37 -33 -33 -44 -63 -44 -120 0 -61 23 -106 72
-138 47 -31 128 -43 179 -26 19 6 38 11 42 11 4 -1 28 19 52 44 76 79 85 184
22 254 -43 47 -133 71 -202 53z"/>
<path d="M1425 1458 c11 -6 38 -30 60 -53 76 -78 147 -103 191 -67 34 28 36
58 5 72 -67 31 -188 60 -244 60 -29 -1 -30 -2 -12 -12z"/>
<path d="M1298 1446 c-52 -19 -126 -68 -171 -114 l-38 -38 48 -40 c91 -74 80
-71 121 -32 75 72 154 91 262 63 36 -9 70 -21 77 -26 17 -15 37 -143 37 -244
-1 -282 -167 -498 -395 -513 -95 -6 -165 14 -241 67 l-56 39 -58 -59 -59 -60
40 -34 c56 -48 168 -101 243 -116 78 -15 209 -7 277 17 125 44 240 139 311
256 21 35 43 67 48 71 6 4 43 6 81 5 104 -5 187 -48 291 -152 124 -124 181
-247 191 -413 l6 -92 38 -5 c22 -3 57 -9 79 -12 36 -5 40 -4 46 21 10 41 -5
185 -27 267 -11 40 -41 113 -67 163 -37 73 -65 109 -142 186 -62 63 -118 109
-162 133 -76 42 -184 76 -243 76 l-40 0 0 155 c0 134 2 155 15 152 8 -3 52
-18 97 -35 122 -44 225 -58 315 -43 112 20 288 114 288 155 0 6 -24 36 -54 65
l-54 53 -39 -30 c-83 -67 -196 -95 -294 -72 -63 14 -179 56 -269 99 l-65 29
-16 -25 c-28 -42 -67 -62 -115 -58 -43 3 -80 25 -66 40 4 5 -1 5 -10 2 -9 -3
-27 2 -40 12 -34 27 -145 101 -149 101 -2 -1 -21 -7 -41 -14z"/>
<path d="M200 1390 l0 -30 300 0 c266 0 300 2 300 16 0 42 -15 44 -314 44
l-286 0 0 -30z"/>
<path d="M100 1250 l0 -30 300 0 c266 0 300 2 300 16 0 42 -15 44 -314 44
l-286 0 0 -30z"/>
<path d="M0 1110 l0 -30 300 0 c266 0 300 2 300 16 0 42 -15 44 -314 44 l-286
0 0 -30z"/>
<path d="M100 960 l0 -31 300 1 c259 1 300 4 300 16 0 42 -16 44 -314 44
l-286 0 0 -30z"/>
<path d="M200 820 l0 -30 300 0 c261 1 300 3 300 16 0 42 -16 44 -314 44
l-286 0 0 -30z"/>
</g>
</svg>
